<?xml version="1.0" encoding="UTF-8"?>
<!DOCTYPE svg PUBLIC "-//W3C//DTD SVG 1.1//EN" "http://www.w3.org/Graphics/SVG/1.1/DTD/svg11.dtd">
<!-- Creator: CorelDRAW -->
<svg xmlns="http://www.w3.org/2000/svg" xml:space="preserve" width="125px" height="130px" version="1.1" style="shape-rendering:geometricPrecision; text-rendering:geometricPrecision; image-rendering:optimizeQuality; fill-rule:evenodd; clip-rule:evenodd"
viewBox="0 0 26.99 28.17"
 xmlns:xlink="http://www.w3.org/1999/xlink"
 xmlns:xodm="http://www.corel.com/coreldraw/odm/2003">
 <defs>
  <style type="text/css">
   <![CDATA[
    .fil0 {fill:#2B2A29;fill-rule:nonzero}
   ]]>
  </style>
 </defs>
 <g id="Слой_x0020_1">
  <metadata id="CorelCorpID_0Corel-Layer"/>
  <g>
   <path class="fil0" d="M18.62 3.56c0.9,-1.22 2.51,-0.17 1.76,1.39 -0.27,0.57 -1.32,1.96 -2.46,2.76 0,0 -0.09,-3.07 0.7,-4.15zm-12.64 7.62c-4.35,-0.74 -2.7,-4.61 0.43,-3.15 1.04,0.49 2.36,1.77 2.65,3.25 -0.89,0.19 -2.67,-0.03 -3.08,-0.1zm3.08 3.04l0 3.09c-1.41,0.96 -4.88,2.84 -5.5,6.47 -0.24,1.45 0.32,4.26 3.58,4.38 3.26,0.12 5.58,-2.69 5.58,-7.32l0 -2.33c0.72,-0.33 1.3,-0.57 2.01,-0.79 0.78,3.92 5.16,6.77 9.5,5.43 2.71,-0.84 3.48,-4.11 2.05,-6.38 -2.26,-3.61 -8.15,-2.85 -8.36,-2.82l0 -3.09c1.42,-0.97 4.89,-2.85 5.5,-6.47 0.25,-1.45 -0.32,-4.27 -3.57,-4.39 -3.26,-0.12 -5.58,2.69 -5.58,7.32l0 2.34c-0.72,0.33 -1.31,0.56 -2.02,0.79 -0.78,-3.92 -5.15,-6.78 -9.49,-5.44 -2.71,0.84 -3.48,4.12 -2.06,6.39 2.27,3.6 8.16,2.84 8.36,2.82l0 0zm5.22 0.56c-0.52,0.17 -1.04,0.37 -1.56,0.59l0 -1.99c0.51,-0.17 1.05,-0.37 1.56,-0.59l0 1.99zm-5.92 9.82c-0.89,1.23 -2.5,0.18 -1.76,-1.39 0.27,-0.56 1.32,-1.96 2.46,-2.76 0,0 0.1,3.07 -0.7,4.15zm12.64 -7.62c4.35,0.74 2.7,4.61 -0.42,3.15 -1.05,-0.49 -2.37,-1.76 -2.66,-3.24 0.89,-0.2 2.68,0.02 3.08,0.09z"/>
  </g>
 </g>
</svg>
