<svg xmlns="http://www.w3.org/2000/svg" viewBox="0 0 24 24" fill="none" stroke="#000000" stroke-linecap="round" stroke-linejoin="round" id="Robot--Streamline-Tabler" height="24" width="24">
  <desc>
    Robot Streamline Icon: https://streamlinehq.com
  </desc>
  <path d="M6 6a2 2 0 0 1 2 -2h8a2 2 0 0 1 2 2v4a2 2 0 0 1 -2 2H8a2 2 0 0 1 -2 -2z" stroke-width="2"></path>
  <path d="M12 2v2" stroke-width="2"></path>
  <path d="M9 12v9" stroke-width="2"></path>
  <path d="M15 12v9" stroke-width="2"></path>
  <path d="m5 16 4 -2" stroke-width="2"></path>
  <path d="m15 14 4 2" stroke-width="2"></path>
  <path d="M9 18h6" stroke-width="2"></path>
  <path d="M10 8v0.01" stroke-width="2"></path>
  <path d="M14 8v0.01" stroke-width="2"></path>
</svg>